<svg xmlns="http://www.w3.org/2000/svg" width="24" height="24" fill="none" viewBox="0 0 24 24">
  <path stroke="#000" stroke-linecap="round" stroke-linejoin="round" stroke-width="2" d="M6 17c0 .351 0 .527.016.68a3 3 0 0 0 2.286 2.611c.15.036.324.06.672.106l6.592.879c1.876.25 2.814.375 3.542.085a3 3 0 0 0 1.509-1.32c.383-.684.383-1.63.383-3.523V7.483c0-1.893 0-2.84-.383-3.524a3 3 0 0 0-1.509-1.32c-.728-.29-1.666-.165-3.542.086l-6.592.879a7.34 7.34 0 0 0-.672.105A3 3 0 0 0 6.016 6.32C6 6.473 6 6.65 6 7m6 1 4 4m0 0-4 4m4-4H3"/>
</svg>
