<svg width="19" height="20" viewBox="0 0 19 20" fill="none" xmlns="http://www.w3.org/2000/svg">
    <path d="M1.16669 9.99999C1.16669 14.6024 4.89765 18.3333 9.50002 18.3333C10.8807 18.3333 12 17.214 12 15.8333V15.4167C12 15.0296 12 14.8361 12.0214 14.6737C12.1691 13.5518 13.0519 12.6691 14.1737 12.5214C14.3362 12.5 14.5297 12.5 14.9167 12.5H15.3334C16.7141 12.5 17.8334 11.3807 17.8334 9.99999C17.8334 5.39762 14.1024 1.66666 9.50002 1.66666C4.89765 1.66666 1.16669 5.39762 1.16669 9.99999Z" stroke="black" stroke-width="2" stroke-linecap="round" stroke-linejoin="round"/>
    <path d="M5.33335 10.8333C5.79359 10.8333 6.16669 10.4602 6.16669 9.99999C6.16669 9.53975 5.79359 9.16666 5.33335 9.16666C4.87312 9.16666 4.50002 9.53975 4.50002 9.99999C4.50002 10.4602 4.87312 10.8333 5.33335 10.8333Z" stroke="black" stroke-width="2" stroke-linecap="round" stroke-linejoin="round"/>
    <path d="M12.8334 7.49999C13.2936 7.49999 13.6667 7.12689 13.6667 6.66666C13.6667 6.20642 13.2936 5.83332 12.8334 5.83332C12.3731 5.83332 12 6.20642 12 6.66666C12 7.12689 12.3731 7.49999 12.8334 7.49999Z" stroke="black" stroke-width="2" stroke-linecap="round" stroke-linejoin="round"/>
    <path d="M7.83335 6.66666C8.29359 6.66666 8.66669 6.29356 8.66669 5.83332C8.66669 5.37309 8.29359 4.99999 7.83335 4.99999C7.37312 4.99999 7.00002 5.37309 7.00002 5.83332C7.00002 6.29356 7.37312 6.66666 7.83335 6.66666Z" stroke="black" stroke-width="2" stroke-linecap="round" stroke-linejoin="round"/>
    </svg>
    